<?xml version="1.0" encoding="iso-8859-1"?>
<!-- Generator: Adobe Illustrator 19.0.0, SVG Export Plug-In . SVG Version: 6.00 Build 0)  -->
<svg version="1.1" id="Capa_1" xmlns="http://www.w3.org/2000/svg" xmlns:xlink="http://www.w3.org/1999/xlink" x="0px" y="0px"
	 viewBox="0 0 512 512" style="enable-background:new 0 0 512 512;" xml:space="preserve">
<rect x="7.515" y="187.867" style="fill:#75E0F1;" width="496.971" height="264.517"/>
<rect x="39.577" y="219.93" style="fill:#53D9ED;" width="432.845" height="200.391"/>
<circle style="fill:#FDC572;" cx="256" cy="75.648" r="16.031"/>
<path d="M504.485,180.352h-86.091L272.249,92.664c4.491-4.289,7.297-10.329,7.297-17.016c0-12.983-10.563-23.546-23.546-23.546
	s-23.546,10.563-23.546,23.546c0,6.687,2.806,12.727,7.297,17.016L93.606,180.352H7.515c-4.15,0-7.515,3.365-7.515,7.515v264.517
	c0,4.15,3.365,7.515,7.515,7.515h496.971c4.15,0,7.515-3.365,7.515-7.515V187.867C512,183.717,508.635,180.352,504.485,180.352z
	 M256,67.131c4.696,0,8.517,3.82,8.517,8.517s-3.82,8.517-8.517,8.517c-4.696,0-8.517-3.82-8.517-8.517S251.304,67.131,256,67.131z
	 M496.971,444.869H15.029V195.382h269.526c4.15,0,7.515-3.365,7.515-7.515s-3.365-7.515-7.515-7.515H122.818L256,100.443
	l133.182,79.909h-68.055c-4.15,0-7.515,3.365-7.515,7.515s3.365,7.515,7.515,7.515h175.843V444.869z"/>
<path d="M465.479,222.805c1.243,2.948,4.286,4.861,7.496,4.616c3.032-0.232,5.667-2.308,6.599-5.2
	c2.072-6.438-5.177-12.22-11.012-8.738C465.386,215.377,464.112,219.395,465.479,222.805z"/>
<path d="M472.423,427.836c3.175,0,6.07-2.077,7.103-5.072c1.048-3.038-0.016-6.495-2.573-8.433
	c-5.523-4.188-13.531,1.105-11.812,7.839C465.981,425.456,469.027,427.836,472.423,427.836z"/>
<path d="M46.521,217.054c-2.528-5.993-11.396-6.09-13.887,0c-1.246,3.047-0.342,6.63,2.211,8.707
	c2.419,1.967,5.915,2.222,8.593,0.616C46.611,224.474,47.89,220.47,46.521,217.054z"/>
<path d="M46.511,417.445c-1.106-2.763-3.915-4.592-6.868-4.631c-3.222-0.042-6.199,2.086-7.196,5.15
	c-0.954,2.93-0.017,6.202,2.366,8.163c2.505,2.062,6.16,2.252,8.872,0.483C46.664,424.664,47.901,420.735,46.511,417.445z"/>
<path d="M366.215,368.72h-62.622V256c0-4.15-3.365-7.515-7.515-7.515s-7.515,3.365-7.515,7.515v120.235
	c0,4.15,3.365,7.515,7.515,7.515h70.137c4.15,0,7.515-3.365,7.515-7.515S370.365,368.72,366.215,368.72z"/>
<path d="M212.839,253.109c-2.514-6.037-11.358-6.038-13.873,0l-50.098,120.235c-1.596,3.831,0.215,8.231,4.046,9.827
	c3.829,1.596,8.23-0.214,9.827-4.046l23.122-55.493l0,0h40.078l0,0l23.122,55.493c1.68,4.033,6.594,5.787,10.459,3.746
	c3.387-1.789,4.885-5.997,3.414-9.528L212.839,253.109z M192.125,308.603l13.777-33.065l13.777,33.065H192.125z"/>
<path d="M85.667,263.515h40.078c4.15,0,7.515-3.365,7.515-7.515c0-4.15-3.365-7.515-7.515-7.515h-22.544v-12.524
	c0-4.15-3.365-7.515-7.515-7.515c-4.15,0-7.515,3.365-7.515,7.515v12.524h-2.505c-20.718,0-37.573,16.855-37.573,37.573
	s16.855,37.573,37.573,37.573h10.02c12.431,0,22.544,10.113,22.544,22.544c0,12.431-10.113,22.544-22.544,22.544H55.609
	c-4.15,0-7.515,3.365-7.515,7.515s3.365,7.515,7.515,7.515h32.564v12.524c0,4.15,3.365,7.515,7.515,7.515
	c4.15,0,7.515-3.365,7.515-7.515v-13.281c17.129-3.491,30.059-18.671,30.059-36.817c0-20.718-16.855-37.573-37.573-37.573h-10.02
	c-12.431,0-22.544-10.113-22.544-22.544C63.123,273.627,73.236,263.515,85.667,263.515z"/>
<path d="M388.759,286.059v60.117c0,20.718,16.855,37.573,37.573,37.573h30.059c4.15,0,7.515-3.365,7.515-7.515
	s-3.365-7.515-7.515-7.515h-30.059c-12.431,0-22.544-10.113-22.544-22.544v-22.544h42.583c4.15,0,7.515-3.365,7.515-7.515
	c0-4.15-3.365-7.515-7.515-7.515h-42.583v-22.544c0-12.431,10.113-22.544,22.544-22.544h30.059c4.15,0,7.515-3.365,7.515-7.515
	c0-4.15-3.365-7.515-7.515-7.515h-30.059C405.614,248.485,388.759,265.34,388.759,286.059z"/>
<g>
</g>
<g>
</g>
<g>
</g>
<g>
</g>
<g>
</g>
<g>
</g>
<g>
</g>
<g>
</g>
<g>
</g>
<g>
</g>
<g>
</g>
<g>
</g>
<g>
</g>
<g>
</g>
<g>
</g>
</svg>
